<?xml version="1.0" encoding="UTF-8"?>
<svg id="_レイヤー_2" data-name="レイヤー 2" xmlns="http://www.w3.org/2000/svg" xmlns:xlink="http://www.w3.org/1999/xlink" viewBox="0 0 290.95 267.47">
  <defs>
    <style>
      .cls-1 {
        fill: none;
      }

      .cls-2 {
        fill: #f4f2ef;
        font-family: HiraginoSans-W5-83pv-RKSJ-H, 'Hiragino Sans';
        font-size: 16px;
      }

      .cls-3 {
        letter-spacing: -.5em;
      }

      .cls-4 {
        clip-path: url(#clippath);
      }
    </style>
    <clipPath id="clippath">
      <path class="cls-1" d="M290.95,133.74c0-12.18-7.09-23.6-19.47-33.43,12.38-9.84,19.47-21.25,19.47-33.43C290.95,29.94,225.82,0,145.48,0S0,29.94,0,66.87c0,12.18,7.09,23.6,19.47,33.43C7.09,110.14,0,121.56,0,133.74s7.09,23.6,19.47,33.43C7.09,177.01,0,188.42,0,200.6c0,36.93,65.13,66.87,145.48,66.87s145.48-29.94,145.48-66.87c0-12.18-7.09-23.6-19.47-33.43,12.38-9.84,19.47-21.25,19.47-33.43Z"/>
    </clipPath>
  </defs>
  <g id="_固定" data-name="固定">
    <g class="cls-4">
      <image width="4284" height="5712" transform="translate(-12.92) scale(.08)" xlink:href="../PF_ME_ホバー_犬.jpg"/>
    </g>
    <text class="cls-2" transform="translate(77.48 127.51)"><tspan x="0" y="0">我が家の豆柴くん</tspan><tspan class="cls-3" x="128" y="0">。</tspan><tspan x="-20" y="20">家族全員溺愛してます！</tspan></text>
  </g>
</svg>