<?xml version="1.0" encoding="UTF-8"?>
<svg id="_レイヤー_2" data-name="レイヤー 2" xmlns="http://www.w3.org/2000/svg" viewBox="0 0 291.95 268.47">
  <defs>
    <style>
      .cls-1 {
        fill: #f2f0ed;
        stroke: #fff;
        stroke-miterlimit: 10;
      }
    </style>
  </defs>
  <g id="_固定" data-name="固定">
    <path class="cls-1" d="M291.45,134.24c0-12.18-7.09-23.6-19.47-33.43,12.38-9.84,19.47-21.25,19.47-33.43C291.45,30.44,226.32.5,145.98.5S.5,30.44.5,67.37c0,12.18,7.09,23.6,19.47,33.43C7.59,110.64.5,122.06.5,134.24s7.09,23.6,19.47,33.43C7.59,177.51.5,188.92.5,201.1c0,36.93,65.13,66.87,145.48,66.87s145.48-29.94,145.48-66.87c0-12.18-7.09-23.6-19.47-33.43,12.38-9.84,19.47-21.25,19.47-33.43Z"/>
  </g>
</svg>