<?xml version="1.0" encoding="UTF-8"?>
<svg id="_レイヤー_2" data-name="レイヤー 2" xmlns="http://www.w3.org/2000/svg" viewBox="0 0 403.56 538.03">
  <defs>
    <style>
      .cls-1 {
        fill: #f4f2ef;
      }
    </style>
  </defs>
  <g id="_固定" data-name="固定">
    <path class="cls-1" d="M403.56,330.7c0-18.01-15.53-34.58-41.55-47.7,16.3-11.29,25.62-24.38,25.62-38.33,0-12.43-7.4-24.17-20.53-34.56,22.95-12.67,36.46-28.21,36.46-45.01,0-18.4-16.2-35.29-43.24-48.54,17.34-11.55,27.31-25.05,27.31-39.47C387.62,34.51,300.85,0,193.81,0S0,34.51,0,77.08c0,18.4,16.2,35.29,43.24,48.54-17.34,11.55-27.31,25.05-27.31,39.47,0,12.43,7.4,24.17,20.53,34.56C13.52,212.32,0,227.87,0,244.67c0,18.01,15.53,34.58,41.55,47.7-16.3,11.29-25.62,24.38-25.62,38.33,0,14.96,10.72,28.91,29.25,40.73-14.71,8.58-23.11,18.48-23.11,29.02,0,11.82,10.54,22.83,28.71,32.08-23.91,11.02-38.07,24.71-38.07,39.54,0,36.43,85.4,65.96,190.74,65.96s190.74-29.53,190.74-65.96c0-14.84-14.17-28.53-38.07-39.54,18.17-9.25,28.71-20.26,28.71-32.08,0-8.99-6.11-17.5-17.02-25.14,22.51-12.59,35.74-27.99,35.74-44.61Z"/>
  </g>
</svg>