<?xml version="1.0" encoding="UTF-8"?>
<svg id="_レイヤー_2" data-name="レイヤー 2" xmlns="http://www.w3.org/2000/svg" viewBox="0 0 531.14 573.57">
  <defs>
    <style>
      .cls-1 {
        fill: #f4f2ef;
      }
    </style>
  </defs>
  <g id="_固定" data-name="固定">
    <polygon class="cls-1" points="531.14 286.79 478.14 327.22 516.83 381.53 454.1 404.05 473.97 467.69 407.37 468.83 404.63 535.41 342 512.89 314.6 573.57 265.57 528.54 216.54 573.57 189.14 512.89 126.5 535.41 123.77 468.83 57.17 467.69 77.04 404.05 14.31 381.53 53 327.22 0 286.79 53 246.36 14.31 192.05 77.04 169.52 57.17 105.88 123.77 104.75 126.5 38.16 189.14 60.69 216.54 0 265.57 45.04 314.6 0 342 60.69 404.64 38.16 407.37 104.75 473.97 105.88 454.1 169.52 516.83 192.05 478.14 246.35 531.14 286.79"/>
  </g>
</svg>