<?xml version="1.0" encoding="UTF-8"?>
<svg id="_レイヤー_2" data-name="レイヤー 2" xmlns="http://www.w3.org/2000/svg" viewBox="0 0 511.52 531.76">
  <defs>
    <style>
      .cls-1 {
        fill: #f4f2ef;
      }
    </style>
  </defs>
  <g id="_固定" data-name="固定">
    <polygon class="cls-1" points="511.52 265.88 457.73 307.38 492.96 365.48 427.73 384.45 438.91 451.48 371.36 444.49 355.85 510.63 296.58 477.52 255.76 531.76 214.94 477.52 155.67 510.63 140.16 444.49 72.61 451.47 83.79 384.45 18.56 365.48 53.79 307.38 0 265.88 53.79 224.38 18.56 166.28 83.79 147.31 72.61 80.29 140.16 87.27 155.67 21.13 214.94 54.24 255.76 0 296.58 54.24 355.85 21.13 371.36 87.27 438.91 80.29 427.73 147.31 492.96 166.28 457.73 224.38 511.52 265.88"/>
  </g>
</svg>