<?xml version="1.0" encoding="UTF-8"?>
<svg id="_レイヤー_2" data-name="レイヤー 2" xmlns="http://www.w3.org/2000/svg" viewBox="0 0 315.48 301.04">
  <defs>
    <style>
      .cls-1 {
        fill: #f4f2ef;
      }
    </style>
  </defs>
  <g id="_固定" data-name="固定">
    <path class="cls-1" d="M315.48,150.52c0,15.26-34.1,24.95-38.57,38.72-4.64,14.28,17.1,42.12,8.45,54.01-8.73,12-41.99-.11-53.99,8.63-11.88,8.65-10.59,44.06-24.87,48.7-13.77,4.47-33.49-24.79-48.75-24.79s-34.98,29.26-48.75,24.79c-14.28-4.64-12.99-40.05-24.87-48.7-12-8.73-45.26,3.37-53.99-8.63-8.65-11.88,13.08-39.73,8.45-54.01-4.47-13.77-38.57-23.46-38.57-38.72s34.1-24.95,38.57-38.72c4.64-14.28-17.1-42.12-8.45-54.01,8.73-12,41.99.11,53.99-8.63,11.88-8.65,10.59-44.06,24.87-48.7,13.77-4.47,33.49,24.79,48.75,24.79S192.72-4.01,206.49.46c14.28,4.64,12.99,40.05,24.87,48.7,12,8.73,45.26-3.37,53.99,8.63,8.65,11.88-13.08,39.73-8.45,54.01,4.47,13.77,38.57,23.46,38.57,38.72Z"/>
  </g>
</svg>