<?xml version="1.0" encoding="UTF-8"?>
<svg id="_レイヤー_2" data-name="レイヤー 2" xmlns="http://www.w3.org/2000/svg" viewBox="0 0 279.23 266.88">
  <defs>
    <style>
      .cls-1 {
        fill: #f2f0ed;
      }
    </style>
  </defs>
  <g id="_固定" data-name="固定">
    <path class="cls-1" d="M279.23,133.44c0,13.98-21.73,24.36-25.82,36.98-4.25,13.08,7.08,34.21-.84,45.1-8,10.99-31.66,6.71-42.65,14.71-10.88,7.92-14.08,31.79-27.15,36.03-12.62,4.1-29.17-13.2-43.15-13.2s-30.54,17.3-43.15,13.2c-13.08-4.25-16.27-28.11-27.15-36.03-10.99-8-34.65-3.72-42.65-14.71-7.92-10.88,3.41-32.02-.84-45.1-4.1-12.62-25.82-22.99-25.82-36.98s21.73-24.36,25.82-36.98c4.25-13.08-7.08-34.21.84-45.1,8-10.99,31.66-6.71,42.65-14.71,10.88-7.92,14.08-31.79,27.15-36.03,12.62-4.1,29.17,13.2,43.15,13.2S170.15-3.47,182.76.63c13.08,4.25,16.27,28.11,27.15,36.03,10.99,8,34.65,3.72,42.65,14.71,7.92,10.88-3.41,32.02.84,45.1s25.82,22.99,25.82,36.98Z"/>
  </g>
</svg>