<?xml version="1.0" encoding="UTF-8"?>
<svg id="_レイヤー_2" data-name="レイヤー 2" xmlns="http://www.w3.org/2000/svg" viewBox="0 0 930.82 851.19">
  <defs>
    <style>
      .cls-1 {
        fill: #f2f0ed;
      }
    </style>
  </defs>
  <g id="_固定" data-name="固定">
    <polygon class="cls-1" points="930.82 425.59 842.89 495.64 891.56 596.96 781.99 622.67 784.91 735.12 673.88 716.28 635.18 821.99 537.97 765.07 465.41 851.19 392.84 765.07 295.63 821.99 256.94 716.28 145.91 735.11 148.83 622.67 39.25 596.96 87.92 495.64 0 425.59 87.92 355.54 39.25 254.22 148.83 228.52 145.91 116.07 256.94 134.91 295.63 29.2 392.84 86.12 465.41 0 537.97 86.12 635.18 29.2 673.88 134.91 784.91 116.07 781.99 228.52 891.56 254.23 842.89 355.54 930.82 425.59"/>
  </g>
</svg>