<?xml version="1.0" encoding="UTF-8"?>
<svg id="_レイヤー_2" data-name="レイヤー 2" xmlns="http://www.w3.org/2000/svg" viewBox="0 0 1307.56 1093.42">
  <defs>
    <style>
      .cls-1 {
        fill: #f2f0ed;
      }
    </style>
  </defs>
  <g id="_固定" data-name="固定">
    <path class="cls-1" d="M1172.92,758.83c52.81-30.27,83.01-65.36,83.01-102.77,0-33.32-23.96-64.8-66.52-92.67,74.34-33.96,118.15-75.65,118.15-120.7,0-49.33-52.5-94.62-140.11-130.15,56.18-30.96,88.48-67.16,88.48-105.84C1255.93,92.54,974.78,0,627.97,0S0,92.54,0,206.69c0,49.33,52.5,94.62,140.11,130.15-56.18,30.96-88.48,67.16-88.48,105.84,0,33.32,23.96,64.8,66.52,92.67C43.81,569.31,0,611,0,656.05c0,48.29,50.32,92.72,134.64,127.9-52.81,30.27-83.01,65.36-83.01,102.77,0,114.15,281.15,206.69,627.97,206.69s627.97-92.54,627.97-206.69c0-48.29-50.32-92.71-134.64-127.9Z"/>
  </g>
</svg>